Coordinates
version=1
nRows=54
nColumns=12
inDegrees=yes

Units are S.I. units (second, meters, Newtons, ...)
Angles are in degrees

endheader
time	SC_y	SC_z	SC_x	AC_y	AC_z	AC_x	GH_y	GH_z	GH_yy	EL_x	PS_y
       0.0              -47.97          25.16          27.88          65.72         -14.25         0.5372         -160.5         -6.246         -30.64          17.66          153.0
   0.03293              -47.97          25.16          27.88          65.71         -14.25         0.5392         -160.5          -6.24         -30.64          17.66          153.0
   0.06586              -47.97          25.16          27.87          65.71         -14.25         0.5414         -160.5         -6.234         -30.64          17.67          153.0
   0.09879              -47.97          25.15          27.87           65.7         -14.25         0.5436         -160.5         -6.228         -30.63          17.67          153.0
    0.1317              -47.97          25.15          27.86           65.7         -14.25          0.546         -160.5         -6.221         -30.63          17.67          153.0
    0.1646              -47.97          25.14          27.86          65.69         -14.25         0.5486         -160.5         -6.214         -30.62          17.68          153.0
    0.1976              -47.97          25.13          27.85          65.68         -14.25         0.5513         -160.5         -6.206         -30.62          17.68          153.0
    0.2305              -47.97          25.13          27.85          65.68         -14.25         0.5542         -160.5         -6.198         -30.61          17.68          153.0
    0.2634              -47.97          25.12          27.84          65.67         -14.25         0.5573         -160.4         -6.189         -30.61          17.69          153.0
    0.2964              -47.97          25.11          27.84          65.66         -14.25         0.5607         -160.4          -6.18          -30.6          17.69          152.9
    0.3293              -47.97          25.11          27.83          65.66         -14.25         0.5643         -160.4          -6.17         -30.59           17.7          152.9
    0.3622              -47.96           25.1          27.82          65.65         -14.25         0.5682         -160.4         -6.159         -30.58           17.7          152.9
    0.3952              -47.96          25.09          27.81          65.64         -14.25         0.5723         -160.4         -6.147         -30.58          17.71          152.9
    0.4281              -47.96          25.08           27.8          65.63         -14.25         0.5769         -160.3         -6.134         -30.57          17.71          152.9
     0.461              -47.96          25.07           27.8          65.62         -14.25         0.5817         -160.3          -6.12         -30.56          17.72          152.9
    0.4939              -47.96          25.06          27.79           65.6         -14.25          0.587         -160.3         -6.105         -30.55          17.73          152.9
    0.5269              -47.96          25.05          27.77          65.59         -14.25         0.5928         -160.3         -6.089         -30.54          17.73          152.8
    0.5598              -47.95          25.03          27.76          65.58         -14.25         0.5991         -160.2         -6.071         -30.52          17.74          152.8
    0.5927              -47.95          25.02          27.75          65.56         -14.25         0.6059         -160.2         -6.052         -30.51          17.75          152.8
    0.6257              -47.95           25.0          27.74          65.55         -14.25         0.6134         -160.2         -6.031          -30.5          17.76          152.8
    0.6586              -47.95          24.98          27.72          65.53         -14.25         0.6216         -160.1         -6.008         -30.48          17.77          152.7
    0.6915              -47.94          24.97           27.7          65.51         -14.25         0.6307         -160.1         -5.982         -30.46          17.78          152.7
    0.7244              -47.94          24.94          27.68          65.49         -14.25         0.6407         -160.0         -5.954         -30.44           17.8          152.7
    0.7574              -47.94          24.92          27.66          65.46         -14.25         0.6518         -160.0         -5.923         -30.42          17.81          152.6
    0.7903              -47.93          24.89          27.64          65.43         -14.25         0.6641         -159.9         -5.888          -30.4          17.83          152.6
    0.8232              -47.93          24.87          27.61           65.4         -14.25         0.6779         -159.9         -5.849         -30.37          17.84          152.6
    0.8562              -47.92          24.83          27.58          65.37         -14.25         0.6933         -159.8         -5.806         -30.34          17.86          152.5
    0.8891              -47.92           24.8          27.55          65.33         -14.25         0.7106         -159.7         -5.757          -30.3          17.89          152.5
     0.922              -47.91          24.75          27.51          65.29         -14.25         0.7302         -159.6         -5.702         -30.27          17.91          152.4
    0.9549               -47.9          24.71          27.47          65.24         -14.25         0.7524         -159.5         -5.639         -30.22          17.94          152.3
    0.9879               -47.9          24.65          27.42          65.18         -14.25         0.7778         -159.4         -5.567         -30.17          17.97          152.2
     1.021              -47.89          24.59          27.37          65.12         -14.25         0.8069         -159.2         -5.485         -30.11          18.01          152.2
     1.054              -47.88          24.52          27.31          65.04         -14.25         0.8406         -159.1          -5.39         -30.05          18.06          152.0
     1.087              -47.86          24.44          27.23          64.95         -14.25         0.8797         -158.9          -5.28         -29.97          18.11          151.9
      1.12              -47.85          24.34          27.15          64.85         -14.25         0.9254         -158.6         -5.151         -29.88          18.17          151.8
     1.153              -47.83          24.23          27.04          64.73         -14.25         0.9793         -158.4         -4.999         -29.78          18.24          151.6
     1.185              -47.81          24.09          26.92          64.59         -14.25          1.043         -158.1         -4.819         -29.65          18.32          151.4
     1.218              -47.79          23.93          26.78          64.42         -14.25           1.12         -157.7         -4.602          -29.5          18.42          151.1
     1.251              -47.76          23.73           26.6          64.21         -14.25          1.213         -157.2          -4.34         -29.32          18.54          150.8
     1.284              -47.72          23.49          26.39          63.96         -14.25          1.326         -156.7          -4.02         -29.09          18.69          150.5
     1.317              -47.67          23.19          26.12          63.65         -14.25          1.466         -156.0         -3.625         -28.82          18.87          150.0
      1.35              -47.62          22.82          25.79          63.26         -14.25          1.641         -155.2         -3.133         -28.47          19.09          149.5
     1.383              -47.55          22.35          25.38          62.77         -14.25          1.861         -154.1         -2.512         -28.04          19.38          148.8
     1.416              -47.46          21.76          24.85          62.14         -14.25          2.141         -152.7         -1.724         -27.49          19.74          147.9
     1.449              -47.34           21.0          24.17          61.35         -14.24          2.499         -151.0        -0.7144         -26.79          20.21          146.7
     1.482               -47.2          20.03           23.3          60.32         -14.24          2.958         -148.8          0.581         -25.88           20.8          145.2
     1.515              -47.01          18.78           22.2          59.02         -14.24          3.545         -145.9          2.236         -24.73          21.56          143.4
     1.548              -46.77          17.22           20.8          57.37         -14.23          4.282         -142.3          4.316         -23.28          22.52          141.0
     1.581              -46.48          15.31           19.1          55.37         -14.23          5.182         -138.0          6.852         -21.51          23.69          138.1
     1.614              -46.14           13.1          17.13          53.05         -14.22          6.224         -132.9           9.79         -19.46          25.04          134.8
     1.646              -45.78           10.7           15.0          50.53         -14.22          7.352         -127.4          12.97         -17.24           26.5          131.1
     1.679              -45.42          8.307          12.87          48.02         -14.21           8.48         -121.9          16.15         -15.02          27.97          127.5
     1.712              -45.08          6.096           10.9           45.7          -14.2          9.522         -116.9          19.09         -12.97          29.32          124.2
     1.745              -44.79          4.188          9.201          43.69          -14.2          10.42         -112.5          21.63          -11.2          30.49          121.3
